0
SECTION
2
ENTITIES
0
LINE
8
OUTLINE
10
0.0
20
0.0
30
0.0
11
200.0
21
0.0
31
0.0
0
LINE
8
OUTLINE
10
200.0
20
0.0
30
0.0
11
200.0
21
50.0
31
0.0
0
LINE
8
OUTLINE
10
200.0
20
50.0
30
0.0
11
0.0
21
50.0
31
0.0
0
LINE
8
OUTLINE
10
0.0
20
50.0
30
0.0
11
0.0
21
0.0
31
0.0
0
CIRCLE
8
HOLES
10
25.0
20
25.0
30
0.0
40
2.0
0
CIRCLE
8
HOLES
10
55.0
20
25.0
30
0.0
40
2.0
0
CIRCLE
8
HOLES
10
85.0
20
25.0
30
0.0
40
2.0
0
CIRCLE
8
HOLES
10
115.0
20
25.0
30
0.0
40
2.0
0
CIRCLE
8
HOLES
10
145.0
20
25.0
30
0.0
40
2.0
0
ARC
8
OUTLINE
10
175.0
20
25.0
30
0.0
40
10.0
50
0.0
51
90.0
0
TEXT
8
LABELS
1
FLANGE PANEL A-14
0
ENDSEC
0
